<svg width="612" height="435" viewBox="0 0 612 435" fill="none" xmlns="http://www.w3.org/2000/svg"><mask id="mask0_1668_33136" style="mask-type:alpha" maskUnits="userSpaceOnUse" x="0" y="0" width="612" height="435"><path fill="#101010" d="M0 0h612v435H0z"/></mask><g mask="url(#mask0_1668_33136)"><path d="M433.451-91.273l200.385 200.427 22.304-22.31-200.385-200.426-22.304 22.309z" fill="red"/><path d="M388.915-46.723l200.386 200.426 22.304-22.309L411.22-69.032l-22.305 22.309z" fill="#FF3600"/><path d="M344.427-2.175l200.385 200.427 22.305-22.309L366.731-24.483 344.427-2.175z" fill="#FF6900"/><path d="M299.904 42.36l200.385 200.427 22.304-22.309L322.208 20.052 299.904 42.36z" fill="#F49400"/><path d="M255.384 86.875L455.77 287.302l22.304-22.309L277.689 64.566l-22.305 22.309z" fill="#FFBD00"/><path d="M233.372 509.389l200.386-200.427-22.304-22.309L211.068 487.08l22.304 22.309z" fill="red"/><path d="M188.888 464.84l200.385-200.427-22.304-22.309-200.385 200.427 22.304 22.309z" fill="#FF3600"/><path d="M144.365 420.306L344.75 219.879l-22.304-22.309L122.06 397.997l22.305 22.309z" fill="#FF6900"/><path d="M99.876 375.756l200.386-200.427-22.305-22.309L77.572 353.447l22.304 22.309z" fill="#F49400"/><path d="M55.306 331.242l200.385-200.427-22.304-22.309L33.002 308.933l22.304 22.309z" fill="#FFBD00"/><path d="M811.69 241.939L611.305 442.366l22.304 22.309 200.385-200.427-22.304-22.309z" fill="#FF3600"/><path d="M767.096 197.44L566.711 397.867l22.304 22.309 200.386-200.427-22.305-22.309z" fill="#FF6900"/><path d="M722.588 152.926L522.203 353.353l22.304 22.308 200.386-200.426-22.305-22.309z" fill="#F49400"/><path d="M678.046 108.377L477.66 308.803l22.304 22.309L700.35 130.686l-22.304-22.309z" fill="#FFBD00"/></g></svg>